<svg xmlns="http://www.w3.org/2000/svg" viewBox="0 0 480 246" width="480" height="246" role="img" aria-label="Lumen Series 310, round full-rim metal frame in gunmetal"><defs><linearGradient id="bgFR003" x1="0" y1="0" x2="0" y2="1"><stop offset="0%" stop-color="#FDFDFE"/><stop offset="62%" stop-color="#F1F4F6"/><stop offset="100%" stop-color="#E6EBEE"/></linearGradient><radialGradient id="keyFR003" cx="0.5" cy="0.34" r="0.62"><stop offset="0%" stop-color="#FFFFFF" stop-opacity="0.95"/><stop offset="100%" stop-color="#FFFFFF" stop-opacity="0"/></radialGradient><linearGradient id="gFR003" x1="0.15" y1="0" x2="0.55" y2="1"><stop offset="0%" stop-color="#6E767D"/><stop offset="30%" stop-color="#4B5157"/><stop offset="78%" stop-color="#4B5157"/><stop offset="100%" stop-color="#2C3136"/></linearGradient><linearGradient id="tFR003" x1="0.15" y1="0" x2="0.7" y2="1"><stop offset="0%" stop-color="#E9EFF4"/><stop offset="46%" stop-color="#D7E1E9"/><stop offset="100%" stop-color="#C6D3DD"/></linearGradient><linearGradient id="spFR003" x1="0" y1="0" x2="1" y2="1"><stop offset="0%" stop-color="#FFFFFF" stop-opacity="0"/><stop offset="42%" stop-color="#FFFFFF" stop-opacity="0.60"/><stop offset="58%" stop-color="#FFFFFF" stop-opacity="0.60"/><stop offset="100%" stop-color="#FFFFFF" stop-opacity="0"/></linearGradient><filter id="blurFR003"><feGaussianBlur stdDeviation="3.2"/></filter><filter id="softFR003" x="-30%" y="-40%" width="160%" height="200%"><feGaussianBlur stdDeviation="7"/></filter><clipPath id="lcFR003left"><path d="M 90.8 108.0 A 64.6 61.1 0 0 1 220.0 108.0 A 64.6 61.1 0 0 1 90.8 108.0 Z"/></clipPath><clipPath id="lcFR003right"><path d="M 260.0 108.0 A 64.6 61.1 0 0 1 389.2 108.0 A 64.6 61.1 0 0 1 260.0 108.0 Z"/></clipPath></defs><rect width="480" height="246" rx="16" fill="url(#bgFR003)"/><rect width="480" height="246" rx="16" fill="url(#keyFR003)"/><ellipse cx="240" cy="199.8" rx="174.5" ry="12.2" fill="#0A1620" opacity="0.16" filter="url(#softFR003)"/><path d="M 93.8 88.8 Q 64.3 101.3 34.8 110.6 Q 33.0 111.9 34.8 113.2 Q 64.3 105.5 93.8 93.0 Z" fill="url(#gFR003)"/><path d="M 93.8 88.8 Q 64.3 101.3 34.8 110.6 Q 33.0 111.9 34.8 113.2 Q 64.3 105.5 93.8 93.0 Z" fill="none" stroke="#2C3136" stroke-width="0.9" opacity="0.75"/><path d="M 93.8 89.5 Q 64.3 102.1 34.8 111.1" fill="none" stroke="#6E767D" stroke-width="0.8" opacity="0.50" stroke-linecap="round"/><path d="M 64.3 101.7 Q 49.5 106.3 34.8 110.6 Q 33.0 111.9 34.8 113.2 Q 49.5 108.9 64.3 105.3 Z" fill="#6E767D" opacity="0.82"/><rect x="93.9" y="88.7" width="5.0" height="4.4" rx="2.2" fill="#4B5157" stroke="#2C3136" stroke-width="0.7" opacity="0.95"/><circle cx="94.3" cy="90.9" r="1.5" fill="#6E767D" opacity="0.85"/><path d="M 386.2 88.8 Q 415.7 101.3 445.2 110.6 Q 447.0 111.9 445.2 113.2 Q 415.7 105.5 386.2 93.0 Z" fill="url(#gFR003)"/><path d="M 386.2 88.8 Q 415.7 101.3 445.2 110.6 Q 447.0 111.9 445.2 113.2 Q 415.7 105.5 386.2 93.0 Z" fill="none" stroke="#2C3136" stroke-width="0.9" opacity="0.75"/><path d="M 386.2 89.5 Q 415.7 102.1 445.2 111.1" fill="none" stroke="#6E767D" stroke-width="0.8" opacity="0.50" stroke-linecap="round"/><path d="M 415.7 101.7 Q 430.5 106.3 445.2 110.6 Q 447.0 111.9 445.2 113.2 Q 430.5 108.9 415.7 105.3 Z" fill="#6E767D" opacity="0.82"/><rect x="381.3" y="88.7" width="5.0" height="4.4" rx="2.2" fill="#4B5157" stroke="#2C3136" stroke-width="0.7" opacity="0.95"/><circle cx="385.7" cy="90.9" r="1.5" fill="#6E767D" opacity="0.85"/><g transform="translate(0 0.70)"><path d="M 211.0 86.0 Q 240.0 66.5 269.0 86.0" fill="none" stroke="#2C3136" stroke-width="3.4" stroke-linecap="round" opacity="0.85"/></g><g transform="translate(0 0.00)"><path d="M 211.0 86.0 Q 240.0 66.5 269.0 86.0" fill="none" stroke="#4B5157" stroke-width="3.4" stroke-linecap="round" opacity="1"/></g><g transform="translate(0 -0.78)"><path d="M 211.0 86.0 Q 240.0 66.5 269.0 86.0" fill="none" stroke="#6E767D" stroke-width="1.1" stroke-linecap="round" opacity="0.55"/></g><line x1="233.6" y1="90.0" x2="225.0" y2="114.1" stroke="#4B5157" stroke-width="1.6" stroke-linecap="round"/><g transform="rotate(-15 225.0 123.9)"><rect x="222.1" y="110.4" width="5.8" height="13" rx="2.9" fill="#EDF2F6" stroke="#B4C0C9" stroke-width="0.7"/><rect x="223.4" y="112.4" width="1.8" height="7" rx="0.9" fill="#FFFFFF" opacity="0.8"/></g><line x1="246.4" y1="90.0" x2="255.0" y2="114.1" stroke="#4B5157" stroke-width="1.6" stroke-linecap="round"/><g transform="rotate(15 255.0 123.9)"><rect x="252.1" y="110.4" width="5.8" height="13" rx="2.9" fill="#EDF2F6" stroke="#B4C0C9" stroke-width="0.7"/><rect x="253.4" y="112.4" width="1.8" height="7" rx="0.9" fill="#FFFFFF" opacity="0.8"/></g><path d="M 90.8 108.0 A 64.6 61.1 0 0 1 220.0 108.0 A 64.6 61.1 0 0 1 90.8 108.0 Z" fill="url(#tFR003)"/><g clip-path="url(#lcFR003left)"><path d="M 90.8 108.0 A 64.6 61.1 0 0 1 220.0 108.0 A 64.6 61.1 0 0 1 90.8 108.0 Z" fill="none" stroke="#0F2430" stroke-width="20.7" opacity="0.16" filter="url(#blurFR003)"/></g><g clip-path="url(#lcFR003left)"><path d="M 75.3 67.7 L 142.5 16.3 L 176.1 16.3 L 108.9 67.7 Z" fill="url(#spFR003)" opacity="0.75"/><path d="M 152.8 211.9 L 207.1 170.3 L 220.0 170.3 L 165.7 211.9 Z" fill="#FFFFFF" opacity="0.16"/></g><g transform="translate(0 0.70)"><path d="M 90.8 108.0 A 64.6 61.1 0 0 1 220.0 108.0 A 64.6 61.1 0 0 1 90.8 108.0 Z" fill="none" stroke="#2C3136" stroke-width="2.6" stroke-linejoin="round" stroke-linecap="round" opacity="0.9"/></g><path d="M 90.8 108.0 A 64.6 61.1 0 0 1 220.0 108.0 A 64.6 61.1 0 0 1 90.8 108.0 Z" fill="none" stroke="url(#gFR003)" stroke-width="2.6" stroke-linejoin="round" stroke-linecap="round"/><g transform="translate(0 -0.78)"><path d="M 90.8 108.0 A 64.6 61.1 0 0 1 220.0 108.0 A 64.6 61.1 0 0 1 90.8 108.0 Z" fill="none" stroke="#6E767D" stroke-width="0.8" stroke-linejoin="round" stroke-linecap="round" opacity="0.55"/></g><path d="M 260.0 108.0 A 64.6 61.1 0 0 1 389.2 108.0 A 64.6 61.1 0 0 1 260.0 108.0 Z" fill="url(#tFR003)"/><g clip-path="url(#lcFR003right)"><path d="M 260.0 108.0 A 64.6 61.1 0 0 1 389.2 108.0 A 64.6 61.1 0 0 1 260.0 108.0 Z" fill="none" stroke="#0F2430" stroke-width="20.7" opacity="0.16" filter="url(#blurFR003)"/></g><g clip-path="url(#lcFR003right)"><path d="M 244.5 67.7 L 311.7 16.3 L 345.3 16.3 L 278.1 67.7 Z" fill="url(#spFR003)" opacity="0.75"/><path d="M 322.0 211.9 L 376.3 170.3 L 389.2 170.3 L 334.9 211.9 Z" fill="#FFFFFF" opacity="0.16"/></g><g transform="translate(0 0.70)"><path d="M 260.0 108.0 A 64.6 61.1 0 0 1 389.2 108.0 A 64.6 61.1 0 0 1 260.0 108.0 Z" fill="none" stroke="#2C3136" stroke-width="2.6" stroke-linejoin="round" stroke-linecap="round" opacity="0.9"/></g><path d="M 260.0 108.0 A 64.6 61.1 0 0 1 389.2 108.0 A 64.6 61.1 0 0 1 260.0 108.0 Z" fill="none" stroke="url(#gFR003)" stroke-width="2.6" stroke-linejoin="round" stroke-linecap="round"/><g transform="translate(0 -0.78)"><path d="M 260.0 108.0 A 64.6 61.1 0 0 1 389.2 108.0 A 64.6 61.1 0 0 1 260.0 108.0 Z" fill="none" stroke="#6E767D" stroke-width="0.8" stroke-linejoin="round" stroke-linecap="round" opacity="0.55"/></g></svg>