<svg xmlns="http://www.w3.org/2000/svg" viewBox="0 0 480 246" width="480" height="246" role="img" aria-label="Orbit&amp;Co Series 396, round semi-rim tr90 frame in slate"><defs><linearGradient id="bgFR015" x1="0" y1="0" x2="0" y2="1"><stop offset="0%" stop-color="#FDFDFE"/><stop offset="62%" stop-color="#F1F4F6"/><stop offset="100%" stop-color="#E6EBEE"/></linearGradient><radialGradient id="keyFR015" cx="0.5" cy="0.34" r="0.62"><stop offset="0%" stop-color="#FFFFFF" stop-opacity="0.95"/><stop offset="100%" stop-color="#FFFFFF" stop-opacity="0"/></radialGradient><linearGradient id="gFR015" x1="0.15" y1="0" x2="0.55" y2="1"><stop offset="0%" stop-color="#787F86"/><stop offset="30%" stop-color="#565D64"/><stop offset="78%" stop-color="#565D64"/><stop offset="100%" stop-color="#383D42"/></linearGradient><linearGradient id="tFR015" x1="0.15" y1="0" x2="0.7" y2="1"><stop offset="0%" stop-color="#E9EFF4"/><stop offset="46%" stop-color="#D7E1E9"/><stop offset="100%" stop-color="#C6D3DD"/></linearGradient><linearGradient id="spFR015" x1="0" y1="0" x2="1" y2="1"><stop offset="0%" stop-color="#FFFFFF" stop-opacity="0"/><stop offset="42%" stop-color="#FFFFFF" stop-opacity="0.60"/><stop offset="58%" stop-color="#FFFFFF" stop-opacity="0.60"/><stop offset="100%" stop-color="#FFFFFF" stop-opacity="0"/></linearGradient><filter id="blurFR015"><feGaussianBlur stdDeviation="3.2"/></filter><filter id="softFR015" x="-30%" y="-40%" width="160%" height="200%"><feGaussianBlur stdDeviation="7"/></filter><clipPath id="lcFR015left"><path d="M 104.9 108.0 A 55.2 55.2 0 0 1 215.3 108.0 A 55.2 55.2 0 0 1 104.9 108.0 Z"/></clipPath><clipPath id="lcFR015right"><path d="M 264.7 108.0 A 55.2 55.2 0 0 1 375.1 108.0 A 55.2 55.2 0 0 1 264.7 108.0 Z"/></clipPath><clipPath id="cFR015"><rect x="0" y="36.8" width="480" height="71.2"/></clipPath></defs><rect width="480" height="246" rx="16" fill="url(#bgFR015)"/><rect width="480" height="246" rx="16" fill="url(#keyFR015)"/><ellipse cx="240" cy="192.5" rx="149.1" ry="11.0" fill="#0A1620" opacity="0.16" filter="url(#softFR015)"/><path d="M 107.9 88.2 Q 78.4 100.7 48.9 110.9 Q 45.1 113.5 48.9 116.2 Q 78.4 109.3 107.9 96.8 Z" fill="url(#gFR015)"/><path d="M 107.9 88.2 Q 78.4 100.7 48.9 110.9 Q 45.1 113.5 48.9 116.2 Q 78.4 109.3 107.9 96.8 Z" fill="none" stroke="#383D42" stroke-width="0.9" opacity="0.75"/><path d="M 107.9 89.6 Q 78.4 102.5 48.9 111.9" fill="none" stroke="#787F86" stroke-width="1.5" opacity="0.25" stroke-linecap="round"/><path d="M 78.4 101.6 Q 63.6 106.6 48.9 110.9 Q 45.1 113.5 48.9 116.2 Q 63.6 112.0 78.4 108.9 Z" fill="#787F86" opacity="0.82"/><rect x="108.0" y="88.1" width="5.0" height="8.9" rx="2.2" fill="#565D64" stroke="#383D42" stroke-width="0.7" opacity="0.95"/><circle cx="108.4" cy="92.5" r="1.5" fill="#787F86" opacity="0.85"/><path d="M 372.1 88.2 Q 401.6 100.7 431.1 110.9 Q 434.9 113.5 431.1 116.2 Q 401.6 109.3 372.1 96.8 Z" fill="url(#gFR015)"/><path d="M 372.1 88.2 Q 401.6 100.7 431.1 110.9 Q 434.9 113.5 431.1 116.2 Q 401.6 109.3 372.1 96.8 Z" fill="none" stroke="#383D42" stroke-width="0.9" opacity="0.75"/><path d="M 372.1 89.6 Q 401.6 102.5 431.1 111.9" fill="none" stroke="#787F86" stroke-width="1.5" opacity="0.25" stroke-linecap="round"/><path d="M 401.6 101.6 Q 416.4 106.6 431.1 110.9 Q 434.9 113.5 431.1 116.2 Q 416.4 112.0 401.6 108.9 Z" fill="#787F86" opacity="0.82"/><rect x="367.2" y="88.1" width="5.0" height="8.9" rx="2.2" fill="#565D64" stroke="#383D42" stroke-width="0.7" opacity="0.95"/><circle cx="371.6" cy="92.5" r="1.5" fill="#787F86" opacity="0.85"/><path d="M 206.3 81.8 L 273.7 81.8 L 273.7 94.5 Q 240.0 100.2 206.3 94.5 Z" fill="url(#gFR015)" stroke="#383D42" stroke-width="0.9"/><path d="M 209.3 84.3 L 270.7 84.3" stroke="#787F86" stroke-width="2.8" opacity="0.45" stroke-linecap="round"/><g transform="rotate(-15 222.2 122.4)"><rect x="219.3" y="110.2" width="5.8" height="13" rx="2.9" fill="#EDF2F6" stroke="#B4C0C9" stroke-width="0.7"/><rect x="220.6" y="112.2" width="1.8" height="7" rx="0.9" fill="#FFFFFF" opacity="0.8"/></g><g transform="rotate(15 257.8 122.4)"><rect x="254.9" y="110.2" width="5.8" height="13" rx="2.9" fill="#EDF2F6" stroke="#B4C0C9" stroke-width="0.7"/><rect x="256.2" y="112.2" width="1.8" height="7" rx="0.9" fill="#FFFFFF" opacity="0.8"/></g><path d="M 104.9 108.0 A 55.2 55.2 0 0 1 215.3 108.0 A 55.2 55.2 0 0 1 104.9 108.0 Z" fill="url(#tFR015)"/><g clip-path="url(#lcFR015left)"><path d="M 104.9 108.0 A 55.2 55.2 0 0 1 215.3 108.0 A 55.2 55.2 0 0 1 104.9 108.0 Z" fill="none" stroke="#0F2430" stroke-width="17.7" opacity="0.16" filter="url(#blurFR015)"/></g><g clip-path="url(#lcFR015left)"><path d="M 91.6 71.6 L 149.1 25.2 L 177.8 25.2 L 120.3 71.6 Z" fill="url(#spFR015)" opacity="0.75"/><path d="M 157.9 201.9 L 204.3 164.3 L 215.3 164.3 L 168.9 201.9 Z" fill="#FFFFFF" opacity="0.16"/></g><g clip-path="url(#cFR015)"><g transform="translate(0 1.89)"><path d="M 104.9 108.0 A 55.2 55.2 0 0 1 215.3 108.0 A 55.2 55.2 0 0 1 104.9 108.0 Z" fill="none" stroke="#383D42" stroke-width="7.0" stroke-linejoin="round" stroke-linecap="round" opacity="0.9"/></g><path d="M 104.9 108.0 A 55.2 55.2 0 0 1 215.3 108.0 A 55.2 55.2 0 0 1 104.9 108.0 Z" fill="none" stroke="url(#gFR015)" stroke-width="7.0" stroke-linejoin="round" stroke-linecap="round"/><g transform="translate(0 -2.10)"><path d="M 104.9 108.0 A 55.2 55.2 0 0 1 215.3 108.0 A 55.2 55.2 0 0 1 104.9 108.0 Z" fill="none" stroke="#787F86" stroke-width="2.1" stroke-linejoin="round" stroke-linecap="round" opacity="0.28"/></g></g><path d="M 104.9 108.0 A 55.2 55.2 0 0 1 215.3 108.0 A 55.2 55.2 0 0 1 104.9 108.0 Z" fill="none" stroke="#383D42" stroke-width="1.3" opacity="0.55"/><path d="M 264.7 108.0 A 55.2 55.2 0 0 1 375.1 108.0 A 55.2 55.2 0 0 1 264.7 108.0 Z" fill="url(#tFR015)"/><g clip-path="url(#lcFR015right)"><path d="M 264.7 108.0 A 55.2 55.2 0 0 1 375.1 108.0 A 55.2 55.2 0 0 1 264.7 108.0 Z" fill="none" stroke="#0F2430" stroke-width="17.7" opacity="0.16" filter="url(#blurFR015)"/></g><g clip-path="url(#lcFR015right)"><path d="M 251.4 71.6 L 308.9 25.2 L 337.6 25.2 L 280.1 71.6 Z" fill="url(#spFR015)" opacity="0.75"/><path d="M 317.7 201.9 L 364.1 164.3 L 375.1 164.3 L 328.7 201.9 Z" fill="#FFFFFF" opacity="0.16"/></g><g clip-path="url(#cFR015)"><g transform="translate(0 1.89)"><path d="M 264.7 108.0 A 55.2 55.2 0 0 1 375.1 108.0 A 55.2 55.2 0 0 1 264.7 108.0 Z" fill="none" stroke="#383D42" stroke-width="7.0" stroke-linejoin="round" stroke-linecap="round" opacity="0.9"/></g><path d="M 264.7 108.0 A 55.2 55.2 0 0 1 375.1 108.0 A 55.2 55.2 0 0 1 264.7 108.0 Z" fill="none" stroke="url(#gFR015)" stroke-width="7.0" stroke-linejoin="round" stroke-linecap="round"/><g transform="translate(0 -2.10)"><path d="M 264.7 108.0 A 55.2 55.2 0 0 1 375.1 108.0 A 55.2 55.2 0 0 1 264.7 108.0 Z" fill="none" stroke="#787F86" stroke-width="2.1" stroke-linejoin="round" stroke-linecap="round" opacity="0.28"/></g></g><path d="M 264.7 108.0 A 55.2 55.2 0 0 1 375.1 108.0 A 55.2 55.2 0 0 1 264.7 108.0 Z" fill="none" stroke="#383D42" stroke-width="1.3" opacity="0.55"/></svg>