<svg xmlns="http://www.w3.org/2000/svg" viewBox="0 0 480 246" width="480" height="246" role="img" aria-label="Truss Form 172, oval full-rim acetate frame in burgundy"><defs><linearGradient id="bgFR025" x1="0" y1="0" x2="0" y2="1"><stop offset="0%" stop-color="#FDFDFE"/><stop offset="62%" stop-color="#F1F4F6"/><stop offset="100%" stop-color="#E6EBEE"/></linearGradient><radialGradient id="keyFR025" cx="0.5" cy="0.34" r="0.62"><stop offset="0%" stop-color="#FFFFFF" stop-opacity="0.95"/><stop offset="100%" stop-color="#FFFFFF" stop-opacity="0"/></radialGradient><linearGradient id="gFR025" x1="0.15" y1="0" x2="0.55" y2="1"><stop offset="0%" stop-color="#8E3A4C"/><stop offset="30%" stop-color="#5C1F2E"/><stop offset="78%" stop-color="#5C1F2E"/><stop offset="100%" stop-color="#33101A"/></linearGradient><linearGradient id="tFR025" x1="0.15" y1="0" x2="0.7" y2="1"><stop offset="0%" stop-color="#E9EFF4"/><stop offset="46%" stop-color="#D7E1E9"/><stop offset="100%" stop-color="#C6D3DD"/></linearGradient><linearGradient id="spFR025" x1="0" y1="0" x2="1" y2="1"><stop offset="0%" stop-color="#FFFFFF" stop-opacity="0"/><stop offset="42%" stop-color="#FFFFFF" stop-opacity="0.60"/><stop offset="58%" stop-color="#FFFFFF" stop-opacity="0.60"/><stop offset="100%" stop-color="#FFFFFF" stop-opacity="0"/></linearGradient><filter id="blurFR025"><feGaussianBlur stdDeviation="3.2"/></filter><filter id="softFR025" x="-30%" y="-40%" width="160%" height="200%"><feGaussianBlur stdDeviation="7"/></filter><clipPath id="lcFR025left"><path d="M 100.2 108.0 A 58.8 38.8 0 0 1 217.7 108.0 A 58.8 38.8 0 0 1 100.2 108.0 Z"/></clipPath><clipPath id="lcFR025right"><path d="M 262.3 108.0 A 58.8 38.8 0 0 1 379.8 108.0 A 58.8 38.8 0 0 1 262.3 108.0 Z"/></clipPath></defs><rect width="480" height="246" rx="16" fill="url(#bgFR025)"/><rect width="480" height="246" rx="16" fill="url(#keyFR025)"/><ellipse cx="240" cy="172.1" rx="158.6" ry="9.0" fill="#0A1620" opacity="0.16" filter="url(#softFR025)"/><path d="M 103.2 92.1 Q 73.7 104.6 44.2 116.1 Q 41.4 118.1 44.2 120.1 Q 73.7 114.6 103.2 102.1 Z" fill="url(#gFR025)"/><path d="M 103.2 92.1 Q 73.7 104.6 44.2 116.1 Q 41.4 118.1 44.2 120.1 Q 73.7 114.6 103.2 102.1 Z" fill="none" stroke="#33101A" stroke-width="0.9" opacity="0.75"/><path d="M 103.2 93.7 Q 73.7 106.6 44.2 116.9" fill="none" stroke="#8E3A4C" stroke-width="1.8" opacity="0.50" stroke-linecap="round"/><rect x="103.3" y="91.9" width="5.0" height="10.4" rx="2.2" fill="#5C1F2E" stroke="#33101A" stroke-width="0.7" opacity="0.95"/><circle cx="103.7" cy="97.1" r="1.5" fill="#8E3A4C" opacity="0.85"/><path d="M 376.8 92.1 Q 406.3 104.6 435.8 116.1 Q 438.6 118.1 435.8 120.1 Q 406.3 114.6 376.8 102.1 Z" fill="url(#gFR025)"/><path d="M 376.8 92.1 Q 406.3 104.6 435.8 116.1 Q 438.6 118.1 435.8 120.1 Q 406.3 114.6 376.8 102.1 Z" fill="none" stroke="#33101A" stroke-width="0.9" opacity="0.75"/><path d="M 376.8 93.7 Q 406.3 106.6 435.8 116.9" fill="none" stroke="#8E3A4C" stroke-width="1.8" opacity="0.50" stroke-linecap="round"/><rect x="371.9" y="91.9" width="5.0" height="10.4" rx="2.2" fill="#5C1F2E" stroke="#33101A" stroke-width="0.7" opacity="0.95"/><circle cx="376.3" cy="97.1" r="1.5" fill="#8E3A4C" opacity="0.85"/><path d="M 208.7 89.6 L 271.3 89.6 L 271.3 98.5 Q 240.0 102.5 208.7 98.5 Z" fill="url(#gFR025)" stroke="#33101A" stroke-width="0.9"/><path d="M 211.7 91.4 L 268.3 91.4" stroke="#8E3A4C" stroke-width="2.0" opacity="0.45" stroke-linecap="round"/><path d="M 100.2 108.0 A 58.8 38.8 0 0 1 217.7 108.0 A 58.8 38.8 0 0 1 100.2 108.0 Z" fill="url(#tFR025)"/><g clip-path="url(#lcFR025left)"><path d="M 100.2 108.0 A 58.8 38.8 0 0 1 217.7 108.0 A 58.8 38.8 0 0 1 100.2 108.0 Z" fill="none" stroke="#0F2430" stroke-width="18.8" opacity="0.16" filter="url(#blurFR025)"/></g><g clip-path="url(#lcFR025left)"><path d="M 86.1 82.4 L 147.2 49.8 L 177.7 49.8 L 116.6 82.4 Z" fill="url(#spFR025)" opacity="0.75"/><path d="M 156.6 173.9 L 205.9 147.6 L 217.7 147.6 L 168.3 173.9 Z" fill="#FFFFFF" opacity="0.16"/></g><g transform="translate(0 2.16)"><path d="M 100.2 108.0 A 58.8 38.8 0 0 1 217.7 108.0 A 58.8 38.8 0 0 1 100.2 108.0 Z" fill="none" stroke="#33101A" stroke-width="8.0" stroke-linejoin="round" stroke-linecap="round" opacity="0.9"/></g><path d="M 100.2 108.0 A 58.8 38.8 0 0 1 217.7 108.0 A 58.8 38.8 0 0 1 100.2 108.0 Z" fill="none" stroke="url(#gFR025)" stroke-width="8.0" stroke-linejoin="round" stroke-linecap="round"/><g transform="translate(0 -2.40)"><path d="M 100.2 108.0 A 58.8 38.8 0 0 1 217.7 108.0 A 58.8 38.8 0 0 1 100.2 108.0 Z" fill="none" stroke="#8E3A4C" stroke-width="2.4" stroke-linejoin="round" stroke-linecap="round" opacity="0.55"/></g><path d="M 262.3 108.0 A 58.8 38.8 0 0 1 379.8 108.0 A 58.8 38.8 0 0 1 262.3 108.0 Z" fill="url(#tFR025)"/><g clip-path="url(#lcFR025right)"><path d="M 262.3 108.0 A 58.8 38.8 0 0 1 379.8 108.0 A 58.8 38.8 0 0 1 262.3 108.0 Z" fill="none" stroke="#0F2430" stroke-width="18.8" opacity="0.16" filter="url(#blurFR025)"/></g><g clip-path="url(#lcFR025right)"><path d="M 248.2 82.4 L 309.3 49.8 L 339.9 49.8 L 278.8 82.4 Z" fill="url(#spFR025)" opacity="0.75"/><path d="M 318.7 173.9 L 368.1 147.6 L 379.8 147.6 L 330.5 173.9 Z" fill="#FFFFFF" opacity="0.16"/></g><g transform="translate(0 2.16)"><path d="M 262.3 108.0 A 58.8 38.8 0 0 1 379.8 108.0 A 58.8 38.8 0 0 1 262.3 108.0 Z" fill="none" stroke="#33101A" stroke-width="8.0" stroke-linejoin="round" stroke-linecap="round" opacity="0.9"/></g><path d="M 262.3 108.0 A 58.8 38.8 0 0 1 379.8 108.0 A 58.8 38.8 0 0 1 262.3 108.0 Z" fill="none" stroke="url(#gFR025)" stroke-width="8.0" stroke-linejoin="round" stroke-linecap="round"/><g transform="translate(0 -2.40)"><path d="M 262.3 108.0 A 58.8 38.8 0 0 1 379.8 108.0 A 58.8 38.8 0 0 1 262.3 108.0 Z" fill="none" stroke="#8E3A4C" stroke-width="2.4" stroke-linejoin="round" stroke-linecap="round" opacity="0.55"/></g></svg>