<svg xmlns="http://www.w3.org/2000/svg" viewBox="0 0 480 246" width="480" height="246" role="img" aria-label="Truss Mark 538, geometric semi-rim titanium frame in matte titanium"><defs><linearGradient id="bgFR023" x1="0" y1="0" x2="0" y2="1"><stop offset="0%" stop-color="#FDFDFE"/><stop offset="62%" stop-color="#F1F4F6"/><stop offset="100%" stop-color="#E6EBEE"/></linearGradient><radialGradient id="keyFR023" cx="0.5" cy="0.34" r="0.62"><stop offset="0%" stop-color="#FFFFFF" stop-opacity="0.95"/><stop offset="100%" stop-color="#FFFFFF" stop-opacity="0"/></radialGradient><linearGradient id="gFR023" x1="0.15" y1="0" x2="0.55" y2="1"><stop offset="0%" stop-color="#A2A9AF"/><stop offset="30%" stop-color="#7C848B"/><stop offset="78%" stop-color="#7C848B"/><stop offset="100%" stop-color="#565D63"/></linearGradient><linearGradient id="tFR023" x1="0.15" y1="0" x2="0.7" y2="1"><stop offset="0%" stop-color="#E9EFF4"/><stop offset="46%" stop-color="#D7E1E9"/><stop offset="100%" stop-color="#C6D3DD"/></linearGradient><linearGradient id="spFR023" x1="0" y1="0" x2="1" y2="1"><stop offset="0%" stop-color="#FFFFFF" stop-opacity="0"/><stop offset="42%" stop-color="#FFFFFF" stop-opacity="0.60"/><stop offset="58%" stop-color="#FFFFFF" stop-opacity="0.60"/><stop offset="100%" stop-color="#FFFFFF" stop-opacity="0"/></linearGradient><filter id="blurFR023"><feGaussianBlur stdDeviation="3.2"/></filter><filter id="softFR023" x="-30%" y="-40%" width="160%" height="200%"><feGaussianBlur stdDeviation="7"/></filter><clipPath id="lcFR023left"><path d="M 121.1 65.9 Q 127.3 56.3 138.7 56.3 L 176.8 56.3 Q 188.2 56.3 194.4 65.9 L 215.1 98.4 Q 221.2 108.0 215.1 117.6 L 194.4 150.1 Q 188.2 159.7 176.8 159.7 L 138.7 159.7 Q 127.3 159.7 121.1 150.1 L 100.4 117.6 Q 94.3 108.0 100.4 98.4 Z"/></clipPath><clipPath id="lcFR023right"><path d="M 285.6 65.9 Q 291.8 56.3 303.2 56.3 L 341.3 56.3 Q 352.7 56.3 358.9 65.9 L 379.6 98.4 Q 385.7 108.0 379.6 117.6 L 358.9 150.1 Q 352.7 159.7 341.3 159.7 L 303.2 159.7 Q 291.8 159.7 285.6 150.1 L 264.9 117.6 Q 258.8 108.0 264.9 98.4 Z"/></clipPath><clipPath id="cFR023"><rect x="0" y="40.3" width="480" height="67.7"/></clipPath></defs><rect width="480" height="246" rx="16" fill="url(#bgFR023)"/><rect width="480" height="246" rx="16" fill="url(#keyFR023)"/><ellipse cx="240" cy="188.1" rx="171.3" ry="10.3" fill="#0A1620" opacity="0.16" filter="url(#softFR023)"/><path d="M 97.3 91.4 Q 67.8 103.9 38.3 113.2 Q 36.5 114.5 38.3 115.8 Q 67.8 108.1 97.3 95.6 Z" fill="url(#gFR023)"/><path d="M 97.3 91.4 Q 67.8 103.9 38.3 113.2 Q 36.5 114.5 38.3 115.8 Q 67.8 108.1 97.3 95.6 Z" fill="none" stroke="#565D63" stroke-width="0.9" opacity="0.75"/><path d="M 97.3 92.1 Q 67.8 104.8 38.3 113.7" fill="none" stroke="#A2A9AF" stroke-width="0.8" opacity="0.50" stroke-linecap="round"/><path d="M 67.8 104.3 Q 53.0 109.0 38.3 113.2 Q 36.5 114.5 38.3 115.8 Q 53.0 111.6 67.8 107.9 Z" fill="#A2A9AF" opacity="0.82"/><rect x="97.4" y="91.3" width="5.0" height="4.4" rx="2.2" fill="#7C848B" stroke="#565D63" stroke-width="0.7" opacity="0.95"/><circle cx="97.8" cy="93.5" r="1.5" fill="#A2A9AF" opacity="0.85"/><path d="M 382.7 91.4 Q 412.2 103.9 441.7 113.2 Q 443.5 114.5 441.7 115.8 Q 412.2 108.1 382.7 95.6 Z" fill="url(#gFR023)"/><path d="M 382.7 91.4 Q 412.2 103.9 441.7 113.2 Q 443.5 114.5 441.7 115.8 Q 412.2 108.1 382.7 95.6 Z" fill="none" stroke="#565D63" stroke-width="0.9" opacity="0.75"/><path d="M 382.7 92.1 Q 412.2 104.8 441.7 113.7" fill="none" stroke="#A2A9AF" stroke-width="0.8" opacity="0.50" stroke-linecap="round"/><path d="M 412.2 104.3 Q 426.9 109.0 441.7 113.2 Q 443.5 114.5 441.7 115.8 Q 426.9 111.6 412.2 107.9 Z" fill="#A2A9AF" opacity="0.82"/><rect x="377.8" y="91.3" width="5.0" height="4.4" rx="2.2" fill="#7C848B" stroke="#565D63" stroke-width="0.7" opacity="0.95"/><circle cx="382.2" cy="93.5" r="1.5" fill="#A2A9AF" opacity="0.85"/><g transform="translate(0 1.89)"><path d="M 212.2 89.4 Q 240.0 71.6 267.8 89.4" fill="none" stroke="#565D63" stroke-width="7.8" stroke-linecap="round" opacity="0.85"/></g><g transform="translate(0 0.00)"><path d="M 212.2 89.4 Q 240.0 71.6 267.8 89.4" fill="none" stroke="#7C848B" stroke-width="7.8" stroke-linecap="round" opacity="1"/></g><g transform="translate(0 -2.10)"><path d="M 212.2 89.4 Q 240.0 71.6 267.8 89.4" fill="none" stroke="#A2A9AF" stroke-width="2.5" stroke-linecap="round" opacity="0.55"/></g><line x1="234.0" y1="93.4" x2="225.7" y2="113.2" stroke="#7C848B" stroke-width="1.6" stroke-linecap="round"/><g transform="rotate(-15 225.7 121.4)"><rect x="222.8" y="110.1" width="5.8" height="13" rx="2.9" fill="#EDF2F6" stroke="#B4C0C9" stroke-width="0.7"/><rect x="224.1" y="112.1" width="1.8" height="7" rx="0.9" fill="#FFFFFF" opacity="0.8"/></g><line x1="246.0" y1="93.4" x2="254.3" y2="113.2" stroke="#7C848B" stroke-width="1.6" stroke-linecap="round"/><g transform="rotate(15 254.3 121.4)"><rect x="251.4" y="110.1" width="5.8" height="13" rx="2.9" fill="#EDF2F6" stroke="#B4C0C9" stroke-width="0.7"/><rect x="252.7" y="112.1" width="1.8" height="7" rx="0.9" fill="#FFFFFF" opacity="0.8"/></g><path d="M 121.1 65.9 Q 127.3 56.3 138.7 56.3 L 176.8 56.3 Q 188.2 56.3 194.4 65.9 L 215.1 98.4 Q 221.2 108.0 215.1 117.6 L 194.4 150.1 Q 188.2 159.7 176.8 159.7 L 138.7 159.7 Q 127.3 159.7 121.1 150.1 L 100.4 117.6 Q 94.3 108.0 100.4 98.4 Z" fill="url(#tFR023)"/><g clip-path="url(#lcFR023left)"><path d="M 121.1 65.9 Q 127.3 56.3 138.7 56.3 L 176.8 56.3 Q 188.2 56.3 194.4 65.9 L 215.1 98.4 Q 221.2 108.0 215.1 117.6 L 194.4 150.1 Q 188.2 159.7 176.8 159.7 L 138.7 159.7 Q 127.3 159.7 121.1 150.1 L 100.4 117.6 Q 94.3 108.0 100.4 98.4 Z" fill="none" stroke="#0F2430" stroke-width="20.3" opacity="0.16" filter="url(#blurFR023)"/></g><g clip-path="url(#lcFR023left)"><path d="M 79.1 73.9 L 145.1 30.4 L 178.1 30.4 L 112.1 73.9 Z" fill="url(#spFR023)" opacity="0.75"/><path d="M 155.2 195.9 L 208.5 160.7 L 221.2 160.7 L 167.9 195.9 Z" fill="#FFFFFF" opacity="0.16"/></g><g clip-path="url(#cFR023)"><g transform="translate(0 1.89)"><path d="M 121.1 65.9 Q 127.3 56.3 138.7 56.3 L 176.8 56.3 Q 188.2 56.3 194.4 65.9 L 215.1 98.4 Q 221.2 108.0 215.1 117.6 L 194.4 150.1 Q 188.2 159.7 176.8 159.7 L 138.7 159.7 Q 127.3 159.7 121.1 150.1 L 100.4 117.6 Q 94.3 108.0 100.4 98.4 Z" fill="none" stroke="#565D63" stroke-width="7.0" stroke-linejoin="round" stroke-linecap="round" opacity="0.9"/></g><path d="M 121.1 65.9 Q 127.3 56.3 138.7 56.3 L 176.8 56.3 Q 188.2 56.3 194.4 65.9 L 215.1 98.4 Q 221.2 108.0 215.1 117.6 L 194.4 150.1 Q 188.2 159.7 176.8 159.7 L 138.7 159.7 Q 127.3 159.7 121.1 150.1 L 100.4 117.6 Q 94.3 108.0 100.4 98.4 Z" fill="none" stroke="url(#gFR023)" stroke-width="7.0" stroke-linejoin="round" stroke-linecap="round"/><g transform="translate(0 -2.10)"><path d="M 121.1 65.9 Q 127.3 56.3 138.7 56.3 L 176.8 56.3 Q 188.2 56.3 194.4 65.9 L 215.1 98.4 Q 221.2 108.0 215.1 117.6 L 194.4 150.1 Q 188.2 159.7 176.8 159.7 L 138.7 159.7 Q 127.3 159.7 121.1 150.1 L 100.4 117.6 Q 94.3 108.0 100.4 98.4 Z" fill="none" stroke="#A2A9AF" stroke-width="2.1" stroke-linejoin="round" stroke-linecap="round" opacity="0.55"/></g></g><path d="M 121.1 65.9 Q 127.3 56.3 138.7 56.3 L 176.8 56.3 Q 188.2 56.3 194.4 65.9 L 215.1 98.4 Q 221.2 108.0 215.1 117.6 L 194.4 150.1 Q 188.2 159.7 176.8 159.7 L 138.7 159.7 Q 127.3 159.7 121.1 150.1 L 100.4 117.6 Q 94.3 108.0 100.4 98.4 Z" fill="none" stroke="#565D63" stroke-width="1.3" opacity="0.55"/><path d="M 285.6 65.9 Q 291.8 56.3 303.2 56.3 L 341.3 56.3 Q 352.7 56.3 358.9 65.9 L 379.6 98.4 Q 385.7 108.0 379.6 117.6 L 358.9 150.1 Q 352.7 159.7 341.3 159.7 L 303.2 159.7 Q 291.8 159.7 285.6 150.1 L 264.9 117.6 Q 258.8 108.0 264.9 98.4 Z" fill="url(#tFR023)"/><g clip-path="url(#lcFR023right)"><path d="M 285.6 65.9 Q 291.8 56.3 303.2 56.3 L 341.3 56.3 Q 352.7 56.3 358.9 65.9 L 379.6 98.4 Q 385.7 108.0 379.6 117.6 L 358.9 150.1 Q 352.7 159.7 341.3 159.7 L 303.2 159.7 Q 291.8 159.7 285.6 150.1 L 264.9 117.6 Q 258.8 108.0 264.9 98.4 Z" fill="none" stroke="#0F2430" stroke-width="20.3" opacity="0.16" filter="url(#blurFR023)"/></g><g clip-path="url(#lcFR023right)"><path d="M 243.6 73.9 L 309.6 30.4 L 342.6 30.4 L 276.6 73.9 Z" fill="url(#spFR023)" opacity="0.75"/><path d="M 319.7 195.9 L 373.0 160.7 L 385.7 160.7 L 332.4 195.9 Z" fill="#FFFFFF" opacity="0.16"/></g><g clip-path="url(#cFR023)"><g transform="translate(0 1.89)"><path d="M 285.6 65.9 Q 291.8 56.3 303.2 56.3 L 341.3 56.3 Q 352.7 56.3 358.9 65.9 L 379.6 98.4 Q 385.7 108.0 379.6 117.6 L 358.9 150.1 Q 352.7 159.7 341.3 159.7 L 303.2 159.7 Q 291.8 159.7 285.6 150.1 L 264.9 117.6 Q 258.8 108.0 264.9 98.4 Z" fill="none" stroke="#565D63" stroke-width="7.0" stroke-linejoin="round" stroke-linecap="round" opacity="0.9"/></g><path d="M 285.6 65.9 Q 291.8 56.3 303.2 56.3 L 341.3 56.3 Q 352.7 56.3 358.9 65.9 L 379.6 98.4 Q 385.7 108.0 379.6 117.6 L 358.9 150.1 Q 352.7 159.7 341.3 159.7 L 303.2 159.7 Q 291.8 159.7 285.6 150.1 L 264.9 117.6 Q 258.8 108.0 264.9 98.4 Z" fill="none" stroke="url(#gFR023)" stroke-width="7.0" stroke-linejoin="round" stroke-linecap="round"/><g transform="translate(0 -2.10)"><path d="M 285.6 65.9 Q 291.8 56.3 303.2 56.3 L 341.3 56.3 Q 352.7 56.3 358.9 65.9 L 379.6 98.4 Q 385.7 108.0 379.6 117.6 L 358.9 150.1 Q 352.7 159.7 341.3 159.7 L 303.2 159.7 Q 291.8 159.7 285.6 150.1 L 264.9 117.6 Q 258.8 108.0 264.9 98.4 Z" fill="none" stroke="#A2A9AF" stroke-width="2.1" stroke-linejoin="round" stroke-linecap="round" opacity="0.55"/></g></g><path d="M 285.6 65.9 Q 291.8 56.3 303.2 56.3 L 341.3 56.3 Q 352.7 56.3 358.9 65.9 L 379.6 98.4 Q 385.7 108.0 379.6 117.6 L 358.9 150.1 Q 352.7 159.7 341.3 159.7 L 303.2 159.7 Q 291.8 159.7 285.6 150.1 L 264.9 117.6 Q 258.8 108.0 264.9 98.4 Z" fill="none" stroke="#565D63" stroke-width="1.3" opacity="0.55"/></svg>