<svg xmlns="http://www.w3.org/2000/svg" viewBox="0 0 480 246" width="480" height="246" role="img" aria-label="Vayu Line 861, rectangle semi-rim acetate frame in forest"><defs><linearGradient id="bgFR061" x1="0" y1="0" x2="0" y2="1"><stop offset="0%" stop-color="#FDFDFE"/><stop offset="62%" stop-color="#F1F4F6"/><stop offset="100%" stop-color="#E6EBEE"/></linearGradient><radialGradient id="keyFR061" cx="0.5" cy="0.34" r="0.62"><stop offset="0%" stop-color="#FFFFFF" stop-opacity="0.95"/><stop offset="100%" stop-color="#FFFFFF" stop-opacity="0"/></radialGradient><linearGradient id="gFR061" x1="0.15" y1="0" x2="0.55" y2="1"><stop offset="0%" stop-color="#4C6B56"/><stop offset="30%" stop-color="#2C4033"/><stop offset="78%" stop-color="#2C4033"/><stop offset="100%" stop-color="#17251B"/></linearGradient><linearGradient id="tFR061" x1="0.15" y1="0" x2="0.7" y2="1"><stop offset="0%" stop-color="#E9EFF4"/><stop offset="46%" stop-color="#D7E1E9"/><stop offset="100%" stop-color="#C6D3DD"/></linearGradient><linearGradient id="spFR061" x1="0" y1="0" x2="1" y2="1"><stop offset="0%" stop-color="#FFFFFF" stop-opacity="0"/><stop offset="42%" stop-color="#FFFFFF" stop-opacity="0.60"/><stop offset="58%" stop-color="#FFFFFF" stop-opacity="0.60"/><stop offset="100%" stop-color="#FFFFFF" stop-opacity="0"/></linearGradient><filter id="blurFR061"><feGaussianBlur stdDeviation="3.2"/></filter><filter id="softFR061" x="-30%" y="-40%" width="160%" height="200%"><feGaussianBlur stdDeviation="7"/></filter><clipPath id="lcFR061left"><path d="M 122.6 70.4 L 197.6 70.4 Q 214.2 70.4 214.2 86.9 L 214.2 129.1 Q 214.2 145.6 197.6 145.6 L 122.6 145.6 Q 106.0 145.6 106.0 129.1 L 106.0 86.9 Q 106.0 70.4 122.6 70.4 Z"/></clipPath><clipPath id="lcFR061right"><path d="M 282.4 70.4 L 357.4 70.4 Q 374.0 70.4 374.0 86.9 L 374.0 129.1 Q 374.0 145.6 357.4 145.6 L 282.4 145.6 Q 265.9 145.6 265.9 129.1 L 265.9 86.9 Q 265.9 70.4 282.4 70.4 Z"/></clipPath><clipPath id="cFR061"><rect x="0" y="54.4" width="480" height="53.6"/></clipPath></defs><rect width="480" height="246" rx="16" fill="url(#bgFR061)"/><rect width="480" height="246" rx="16" fill="url(#keyFR061)"/><ellipse cx="240" cy="170.6" rx="145.9" ry="9.0" fill="#0A1620" opacity="0.16" filter="url(#softFR061)"/><path d="M 109.0 92.5 Q 79.5 105.0 50.0 115.4 Q 45.7 118.5 50.0 121.6 Q 79.5 115.0 109.0 102.5 Z" fill="url(#gFR061)"/><path d="M 109.0 92.5 Q 79.5 105.0 50.0 115.4 Q 45.7 118.5 50.0 121.6 Q 79.5 115.0 109.0 102.5 Z" fill="none" stroke="#17251B" stroke-width="0.9" opacity="0.75"/><path d="M 109.0 94.1 Q 79.5 107.0 50.0 116.6" fill="none" stroke="#4C6B56" stroke-width="1.8" opacity="0.50" stroke-linecap="round"/><path d="M 79.5 106.0 Q 64.8 111.1 50.0 115.4 Q 45.7 118.5 50.0 121.6 Q 64.8 117.3 79.5 114.5 Z" fill="#4C6B56" opacity="0.82"/><rect x="109.1" y="92.3" width="5.0" height="10.4" rx="2.2" fill="#2C4033" stroke="#17251B" stroke-width="0.7" opacity="0.95"/><circle cx="109.5" cy="97.5" r="1.5" fill="#4C6B56" opacity="0.85"/><path d="M 371.0 92.5 Q 400.5 105.0 430.0 115.4 Q 434.3 118.5 430.0 121.6 Q 400.5 115.0 371.0 102.5 Z" fill="url(#gFR061)"/><path d="M 371.0 92.5 Q 400.5 105.0 430.0 115.4 Q 434.3 118.5 430.0 121.6 Q 400.5 115.0 371.0 102.5 Z" fill="none" stroke="#17251B" stroke-width="0.9" opacity="0.75"/><path d="M 371.0 94.1 Q 400.5 107.0 430.0 116.6" fill="none" stroke="#4C6B56" stroke-width="1.8" opacity="0.50" stroke-linecap="round"/><path d="M 400.5 106.0 Q 415.2 111.1 430.0 115.4 Q 434.3 118.5 430.0 121.6 Q 415.2 117.3 400.5 114.5 Z" fill="#4C6B56" opacity="0.82"/><rect x="366.1" y="92.3" width="5.0" height="10.4" rx="2.2" fill="#2C4033" stroke="#17251B" stroke-width="0.7" opacity="0.95"/><circle cx="370.5" cy="97.5" r="1.5" fill="#4C6B56" opacity="0.85"/><path d="M 205.2 90.1 L 274.9 90.1 L 274.9 98.8 Q 240.0 102.7 205.2 98.8 Z" fill="url(#gFR061)" stroke="#17251B" stroke-width="0.9"/><path d="M 208.2 91.9 L 271.9 91.9" stroke="#4C6B56" stroke-width="1.9" opacity="0.45" stroke-linecap="round"/><path d="M 122.6 70.4 L 197.6 70.4 Q 214.2 70.4 214.2 86.9 L 214.2 129.1 Q 214.2 145.6 197.6 145.6 L 122.6 145.6 Q 106.0 145.6 106.0 129.1 L 106.0 86.9 Q 106.0 70.4 122.6 70.4 Z" fill="url(#tFR061)"/><g clip-path="url(#lcFR061left)"><path d="M 122.6 70.4 L 197.6 70.4 Q 214.2 70.4 214.2 86.9 L 214.2 129.1 Q 214.2 145.6 197.6 145.6 L 122.6 145.6 Q 106.0 145.6 106.0 129.1 L 106.0 86.9 Q 106.0 70.4 122.6 70.4 Z" fill="none" stroke="#0F2430" stroke-width="17.3" opacity="0.16" filter="url(#blurFR061)"/></g><g clip-path="url(#lcFR061left)"><path d="M 93.1 83.2 L 149.3 51.6 L 177.4 51.6 L 121.2 83.2 Z" fill="url(#spFR061)" opacity="0.75"/><path d="M 157.9 171.9 L 203.3 146.4 L 214.2 146.4 L 168.7 171.9 Z" fill="#FFFFFF" opacity="0.16"/></g><g clip-path="url(#cFR061)"><g transform="translate(0 2.16)"><path d="M 122.6 70.4 L 197.6 70.4 Q 214.2 70.4 214.2 86.9 L 214.2 129.1 Q 214.2 145.6 197.6 145.6 L 122.6 145.6 Q 106.0 145.6 106.0 129.1 L 106.0 86.9 Q 106.0 70.4 122.6 70.4 Z" fill="none" stroke="#17251B" stroke-width="8.0" stroke-linejoin="round" stroke-linecap="round" opacity="0.9"/></g><path d="M 122.6 70.4 L 197.6 70.4 Q 214.2 70.4 214.2 86.9 L 214.2 129.1 Q 214.2 145.6 197.6 145.6 L 122.6 145.6 Q 106.0 145.6 106.0 129.1 L 106.0 86.9 Q 106.0 70.4 122.6 70.4 Z" fill="none" stroke="url(#gFR061)" stroke-width="8.0" stroke-linejoin="round" stroke-linecap="round"/><g transform="translate(0 -2.40)"><path d="M 122.6 70.4 L 197.6 70.4 Q 214.2 70.4 214.2 86.9 L 214.2 129.1 Q 214.2 145.6 197.6 145.6 L 122.6 145.6 Q 106.0 145.6 106.0 129.1 L 106.0 86.9 Q 106.0 70.4 122.6 70.4 Z" fill="none" stroke="#4C6B56" stroke-width="2.4" stroke-linejoin="round" stroke-linecap="round" opacity="0.55"/></g></g><path d="M 122.6 70.4 L 197.6 70.4 Q 214.2 70.4 214.2 86.9 L 214.2 129.1 Q 214.2 145.6 197.6 145.6 L 122.6 145.6 Q 106.0 145.6 106.0 129.1 L 106.0 86.9 Q 106.0 70.4 122.6 70.4 Z" fill="none" stroke="#17251B" stroke-width="1.3" opacity="0.55"/><path d="M 282.4 70.4 L 357.4 70.4 Q 374.0 70.4 374.0 86.9 L 374.0 129.1 Q 374.0 145.6 357.4 145.6 L 282.4 145.6 Q 265.9 145.6 265.9 129.1 L 265.9 86.9 Q 265.9 70.4 282.4 70.4 Z" fill="url(#tFR061)"/><g clip-path="url(#lcFR061right)"><path d="M 282.4 70.4 L 357.4 70.4 Q 374.0 70.4 374.0 86.9 L 374.0 129.1 Q 374.0 145.6 357.4 145.6 L 282.4 145.6 Q 265.9 145.6 265.9 129.1 L 265.9 86.9 Q 265.9 70.4 282.4 70.4 Z" fill="none" stroke="#0F2430" stroke-width="17.3" opacity="0.16" filter="url(#blurFR061)"/></g><g clip-path="url(#lcFR061right)"><path d="M 252.9 83.2 L 309.1 51.6 L 337.2 51.6 L 281.0 83.2 Z" fill="url(#spFR061)" opacity="0.75"/><path d="M 317.7 171.9 L 363.1 146.4 L 374.0 146.4 L 328.5 171.9 Z" fill="#FFFFFF" opacity="0.16"/></g><g clip-path="url(#cFR061)"><g transform="translate(0 2.16)"><path d="M 282.4 70.4 L 357.4 70.4 Q 374.0 70.4 374.0 86.9 L 374.0 129.1 Q 374.0 145.6 357.4 145.6 L 282.4 145.6 Q 265.9 145.6 265.9 129.1 L 265.9 86.9 Q 265.9 70.4 282.4 70.4 Z" fill="none" stroke="#17251B" stroke-width="8.0" stroke-linejoin="round" stroke-linecap="round" opacity="0.9"/></g><path d="M 282.4 70.4 L 357.4 70.4 Q 374.0 70.4 374.0 86.9 L 374.0 129.1 Q 374.0 145.6 357.4 145.6 L 282.4 145.6 Q 265.9 145.6 265.9 129.1 L 265.9 86.9 Q 265.9 70.4 282.4 70.4 Z" fill="none" stroke="url(#gFR061)" stroke-width="8.0" stroke-linejoin="round" stroke-linecap="round"/><g transform="translate(0 -2.40)"><path d="M 282.4 70.4 L 357.4 70.4 Q 374.0 70.4 374.0 86.9 L 374.0 129.1 Q 374.0 145.6 357.4 145.6 L 282.4 145.6 Q 265.9 145.6 265.9 129.1 L 265.9 86.9 Q 265.9 70.4 282.4 70.4 Z" fill="none" stroke="#4C6B56" stroke-width="2.4" stroke-linejoin="round" stroke-linecap="round" opacity="0.55"/></g></g><path d="M 282.4 70.4 L 357.4 70.4 Q 374.0 70.4 374.0 86.9 L 374.0 129.1 Q 374.0 145.6 357.4 145.6 L 282.4 145.6 Q 265.9 145.6 265.9 129.1 L 265.9 86.9 Q 265.9 70.4 282.4 70.4 Z" fill="none" stroke="#17251B" stroke-width="1.3" opacity="0.55"/></svg>