<svg xmlns="http://www.w3.org/2000/svg" viewBox="0 0 480 246" width="480" height="246" role="img" aria-label="Terra Optics Type 118, oval full-rim tr90 frame in signal red"><defs><linearGradient id="bgFR099" x1="0" y1="0" x2="0" y2="1"><stop offset="0%" stop-color="#FDFDFE"/><stop offset="62%" stop-color="#F1F4F6"/><stop offset="100%" stop-color="#E6EBEE"/></linearGradient><radialGradient id="keyFR099" cx="0.5" cy="0.34" r="0.62"><stop offset="0%" stop-color="#FFFFFF" stop-opacity="0.95"/><stop offset="100%" stop-color="#FFFFFF" stop-opacity="0"/></radialGradient><linearGradient id="gFR099" x1="0.15" y1="0" x2="0.55" y2="1"><stop offset="0%" stop-color="#B84C42"/><stop offset="30%" stop-color="#8E2B24"/><stop offset="78%" stop-color="#8E2B24"/><stop offset="100%" stop-color="#5C1815"/></linearGradient><linearGradient id="tFR099" x1="0.15" y1="0" x2="0.7" y2="1"><stop offset="0%" stop-color="#E9EFF4"/><stop offset="46%" stop-color="#D7E1E9"/><stop offset="100%" stop-color="#C6D3DD"/></linearGradient><linearGradient id="spFR099" x1="0" y1="0" x2="1" y2="1"><stop offset="0%" stop-color="#FFFFFF" stop-opacity="0"/><stop offset="42%" stop-color="#FFFFFF" stop-opacity="0.60"/><stop offset="58%" stop-color="#FFFFFF" stop-opacity="0.60"/><stop offset="100%" stop-color="#FFFFFF" stop-opacity="0"/></linearGradient><filter id="blurFR099"><feGaussianBlur stdDeviation="3.2"/></filter><filter id="softFR099" x="-30%" y="-40%" width="160%" height="200%"><feGaussianBlur stdDeviation="7"/></filter><clipPath id="lcFR099left"><path d="M 89.6 108.0 A 64.6 44.6 0 0 1 218.8 108.0 A 64.6 44.6 0 0 1 89.6 108.0 Z"/></clipPath><clipPath id="lcFR099right"><path d="M 261.1 108.0 A 64.6 44.6 0 0 1 390.4 108.0 A 64.6 44.6 0 0 1 261.1 108.0 Z"/></clipPath></defs><rect width="480" height="246" rx="16" fill="url(#bgFR099)"/><rect width="480" height="246" rx="16" fill="url(#keyFR099)"/><ellipse cx="240" cy="179.4" rx="174.5" ry="9.0" fill="#0A1620" opacity="0.16" filter="url(#softFR099)"/><path d="M 92.6 91.2 Q 63.1 103.7 33.6 114.8 Q 31.2 116.5 33.6 118.2 Q 63.1 112.3 92.6 99.8 Z" fill="url(#gFR099)"/><path d="M 92.6 91.2 Q 63.1 103.7 33.6 114.8 Q 31.2 116.5 33.6 118.2 Q 63.1 112.3 92.6 99.8 Z" fill="none" stroke="#5C1815" stroke-width="0.9" opacity="0.75"/><path d="M 92.6 92.6 Q 63.1 105.4 33.6 115.5" fill="none" stroke="#B84C42" stroke-width="1.5" opacity="0.25" stroke-linecap="round"/><rect x="92.7" y="91.0" width="5.0" height="8.9" rx="2.2" fill="#8E2B24" stroke="#5C1815" stroke-width="0.7" opacity="0.95"/><circle cx="93.1" cy="95.5" r="1.5" fill="#B84C42" opacity="0.85"/><path d="M 387.4 91.2 Q 416.9 103.7 446.4 114.8 Q 448.8 116.5 446.4 118.2 Q 416.9 112.3 387.4 99.8 Z" fill="url(#gFR099)"/><path d="M 387.4 91.2 Q 416.9 103.7 446.4 114.8 Q 448.8 116.5 446.4 118.2 Q 416.9 112.3 387.4 99.8 Z" fill="none" stroke="#5C1815" stroke-width="0.9" opacity="0.75"/><path d="M 387.4 92.6 Q 416.9 105.4 446.4 115.5" fill="none" stroke="#B84C42" stroke-width="1.5" opacity="0.25" stroke-linecap="round"/><rect x="382.5" y="91.0" width="5.0" height="8.9" rx="2.2" fill="#8E2B24" stroke="#5C1815" stroke-width="0.7" opacity="0.95"/><circle cx="386.9" cy="95.5" r="1.5" fill="#B84C42" opacity="0.85"/><path d="M 209.8 86.8 L 270.1 86.8 L 270.1 97.1 Q 240.0 101.7 209.8 97.1 Z" fill="url(#gFR099)" stroke="#5C1815" stroke-width="0.9"/><path d="M 212.8 88.8 L 267.1 88.8" stroke="#B84C42" stroke-width="2.3" opacity="0.45" stroke-linecap="round"/><path d="M 89.6 108.0 A 64.6 44.6 0 0 1 218.8 108.0 A 64.6 44.6 0 0 1 89.6 108.0 Z" fill="url(#tFR099)"/><g clip-path="url(#lcFR099left)"><path d="M 89.6 108.0 A 64.6 44.6 0 0 1 218.8 108.0 A 64.6 44.6 0 0 1 89.6 108.0 Z" fill="none" stroke="#0F2430" stroke-width="20.7" opacity="0.16" filter="url(#blurFR099)"/></g><g clip-path="url(#lcFR099left)"><path d="M 74.1 78.5 L 141.3 41.0 L 174.9 41.0 L 107.7 78.5 Z" fill="url(#spFR099)" opacity="0.75"/><path d="M 151.6 183.9 L 205.9 153.5 L 218.9 153.5 L 164.6 183.9 Z" fill="#FFFFFF" opacity="0.16"/></g><g transform="translate(0 1.78)"><path d="M 89.6 108.0 A 64.6 44.6 0 0 1 218.8 108.0 A 64.6 44.6 0 0 1 89.6 108.0 Z" fill="none" stroke="#5C1815" stroke-width="6.6" stroke-linejoin="round" stroke-linecap="round" opacity="0.9"/></g><path d="M 89.6 108.0 A 64.6 44.6 0 0 1 218.8 108.0 A 64.6 44.6 0 0 1 89.6 108.0 Z" fill="none" stroke="url(#gFR099)" stroke-width="6.6" stroke-linejoin="round" stroke-linecap="round"/><g transform="translate(0 -1.98)"><path d="M 89.6 108.0 A 64.6 44.6 0 0 1 218.8 108.0 A 64.6 44.6 0 0 1 89.6 108.0 Z" fill="none" stroke="#B84C42" stroke-width="2.0" stroke-linejoin="round" stroke-linecap="round" opacity="0.28"/></g><path d="M 261.1 108.0 A 64.6 44.6 0 0 1 390.4 108.0 A 64.6 44.6 0 0 1 261.1 108.0 Z" fill="url(#tFR099)"/><g clip-path="url(#lcFR099right)"><path d="M 261.1 108.0 A 64.6 44.6 0 0 1 390.4 108.0 A 64.6 44.6 0 0 1 261.1 108.0 Z" fill="none" stroke="#0F2430" stroke-width="20.7" opacity="0.16" filter="url(#blurFR099)"/></g><g clip-path="url(#lcFR099right)"><path d="M 245.6 78.5 L 312.9 41.0 L 346.5 41.0 L 279.2 78.5 Z" fill="url(#spFR099)" opacity="0.75"/><path d="M 323.2 183.9 L 377.5 153.5 L 390.4 153.5 L 336.1 183.9 Z" fill="#FFFFFF" opacity="0.16"/></g><g transform="translate(0 1.78)"><path d="M 261.1 108.0 A 64.6 44.6 0 0 1 390.4 108.0 A 64.6 44.6 0 0 1 261.1 108.0 Z" fill="none" stroke="#5C1815" stroke-width="6.6" stroke-linejoin="round" stroke-linecap="round" opacity="0.9"/></g><path d="M 261.1 108.0 A 64.6 44.6 0 0 1 390.4 108.0 A 64.6 44.6 0 0 1 261.1 108.0 Z" fill="none" stroke="url(#gFR099)" stroke-width="6.6" stroke-linejoin="round" stroke-linecap="round"/><g transform="translate(0 -1.98)"><path d="M 261.1 108.0 A 64.6 44.6 0 0 1 390.4 108.0 A 64.6 44.6 0 0 1 261.1 108.0 Z" fill="none" stroke="#B84C42" stroke-width="2.0" stroke-linejoin="round" stroke-linecap="round" opacity="0.28"/></g></svg>